<svg width="14" height="10" viewBox="0 0 14 10" fill="none" xmlns="http://www.w3.org/2000/svg">
<path d="M5.48623 9.72941C5.35497 9.72967 5.22494 9.70402 5.10361 9.65391C4.98229 9.6038 4.87205 9.53022 4.77923 9.43741L0.537232 5.19441C0.441659 5.10223 0.3654 4.99194 0.312907 4.86997C0.260413 4.748 0.232736 4.6168 0.231489 4.48403C0.230243 4.35125 0.255452 4.21955 0.305646 4.09662C0.35584 3.97369 0.430013 3.86199 0.523839 3.76803C0.617664 3.67407 0.729262 3.59974 0.852122 3.54937C0.974981 3.49901 1.10664 3.47361 1.23942 3.47467C1.3722 3.47573 1.50344 3.50322 1.62548 3.55554C1.74752 3.60786 1.85792 3.68396 1.95023 3.77941L5.48523 7.31441L11.8502 0.951406C12.0377 0.763765 12.2921 0.658297 12.5574 0.658203C12.8227 0.658109 13.0771 0.763398 13.2647 0.950906C13.4524 1.13841 13.5578 1.39278 13.5579 1.65805C13.558 1.92332 13.4527 2.17777 13.2652 2.36541L6.19323 9.43741C6.10041 9.53022 5.99018 9.6038 5.86885 9.65391C5.74753 9.70402 5.6175 9.72967 5.48623 9.72941Z" fill="#005FAE"/>
</svg>
