<svg width="24" height="24" viewBox="0 0 24 24" fill="none" xmlns="http://www.w3.org/2000/svg">
<path d="M7.51667 10.9917C8.71667 13.35 10.65 15.275 13.0083 16.4833L14.8417 14.65C15.0667 14.425 15.4 14.35 15.6917 14.45C16.625 14.7583 17.6333 14.925 18.6667 14.925C19.125 14.925 19.5 15.3 19.5 15.7583V18.6667C19.5 19.125 19.125 19.5 18.6667 19.5C10.8417 19.5 4.5 13.1583 4.5 5.33333C4.5 4.875 4.875 4.5 5.33333 4.5H8.25C8.70833 4.5 9.08333 4.875 9.08333 5.33333C9.08333 6.375 9.25 7.375 9.55833 8.30833C9.65 8.6 9.58333 8.925 9.35 9.15833L7.51667 10.9917Z" fill="currentColor"/>
</svg>
