<svg width="24" height="24" viewBox="0 0 24 24" fill="none" xmlns="http://www.w3.org/2000/svg">
<path d="M4.69669 7.9075L11.1967 11.3993C11.4151 11.5163 11.6976 11.5718 11.9819 11.5718C12.2662 11.5718 12.5487 11.5163 12.7671 11.3993L19.2671 7.9075C19.6909 7.67957 20.0913 6.79297 19.3139 6.79297H4.65075C3.87335 6.79297 4.27375 7.67957 4.69669 7.9075ZM19.4638 9.81677L12.7671 13.3068C12.4724 13.4611 12.2662 13.4793 11.9819 13.4793C11.6976 13.4793 11.4914 13.4611 11.1967 13.3068C10.902 13.1526 5.01475 10.0664 4.53375 9.8159C4.19575 9.6391 4.19922 9.84624 4.19922 10.0057V16.3263C4.19922 16.6903 4.68975 17.193 5.06589 17.193H18.9325C19.3087 17.193 19.7992 16.6903 19.7992 16.3263V10.0066C19.7992 9.8471 19.8027 9.63997 19.4638 9.81677Z" fill="currentColor"/>
</svg>
