<svg xmlns="http://www.w3.org/2000/svg" xmlns:xlink="http://www.w3.org/1999/xlink"><symbol id="icon-blue-check" viewBox="0 0 14 10">
<path d="M5.48623 9.72941C5.35497 9.72967 5.22494 9.70402 5.10361 9.65391C4.98229 9.6038 4.87205 9.53022 4.77923 9.43741L0.537232 5.19441C0.441659 5.10223 0.3654 4.99194 0.312907 4.86997C0.260413 4.748 0.232736 4.6168 0.231489 4.48403C0.230243 4.35125 0.255452 4.21955 0.305646 4.09662C0.35584 3.97369 0.430013 3.86199 0.523839 3.76803C0.617664 3.67407 0.729262 3.59974 0.852122 3.54937C0.974981 3.49901 1.10664 3.47361 1.23942 3.47467C1.3722 3.47573 1.50344 3.50322 1.62548 3.55554C1.74752 3.60786 1.85792 3.68396 1.95023 3.77941L5.48523 7.31441L11.8502 0.951406C12.0377 0.763765 12.2921 0.658297 12.5574 0.658203C12.8227 0.658109 13.0771 0.763398 13.2647 0.950906C13.4524 1.13841 13.5578 1.39278 13.5579 1.65805C13.558 1.92332 13.4527 2.17777 13.2652 2.36541L6.19323 9.43741C6.10041 9.53022 5.99018 9.6038 5.86885 9.65391C5.74753 9.70402 5.6175 9.72967 5.48623 9.72941Z" fill="#005FAE"/>
</symbol><symbol id="icon-double-arrows" viewBox="0 0 24 24">
<path d="M7.2002 14.4004L12.0002 20.4004L16.8002 14.4004" fill="#424242"/>
<path d="M16.7998 9.59961L11.9998 3.59961L7.19981 9.59961" fill="#424242"/>
</symbol><symbol id="icon-fb" viewBox="0 0 24 24"><path d="M13 10h3v3h-3v7h-3v-7H7v-3h3V8.745c0-1.189.374-2.691 1.118-3.512C11.862 4.41 12.791 4 13.904 4H16v3h-2.1c-.498 0-.9.402-.9.899V10z" fill="currentColor"/></symbol><symbol id="icon-left-arrow" viewBox="0 0 10 14">
<path d="M7.71437 14L0.714375 7L7.71437 0L9.35938 1.645L4.01604 7L9.35938 12.355L7.71437 14Z" fill="currentColor" fill-opacity="0.8"/>
</symbol><symbol id="icon-mail" viewBox="0 0 24 24">
<path d="M4.69669 7.9075L11.1967 11.3993C11.4151 11.5163 11.6976 11.5718 11.9819 11.5718C12.2662 11.5718 12.5487 11.5163 12.7671 11.3993L19.2671 7.9075C19.6909 7.67957 20.0913 6.79297 19.3139 6.79297H4.65075C3.87335 6.79297 4.27375 7.67957 4.69669 7.9075ZM19.4638 9.81677L12.7671 13.3068C12.4724 13.4611 12.2662 13.4793 11.9819 13.4793C11.6976 13.4793 11.4914 13.4611 11.1967 13.3068C10.902 13.1526 5.01475 10.0664 4.53375 9.8159C4.19575 9.6391 4.19922 9.84624 4.19922 10.0057V16.3263C4.19922 16.6903 4.68975 17.193 5.06589 17.193H18.9325C19.3087 17.193 19.7992 16.6903 19.7992 16.3263V10.0066C19.7992 9.8471 19.8027 9.63997 19.4638 9.81677Z" fill="currentColor"/>
</symbol><symbol id="icon-phone" viewBox="0 0 24 24">
<path d="M7.51667 10.9917C8.71667 13.35 10.65 15.275 13.0083 16.4833L14.8417 14.65C15.0667 14.425 15.4 14.35 15.6917 14.45C16.625 14.7583 17.6333 14.925 18.6667 14.925C19.125 14.925 19.5 15.3 19.5 15.7583V18.6667C19.5 19.125 19.125 19.5 18.6667 19.5C10.8417 19.5 4.5 13.1583 4.5 5.33333C4.5 4.875 4.875 4.5 5.33333 4.5H8.25C8.70833 4.5 9.08333 4.875 9.08333 5.33333C9.08333 6.375 9.25 7.375 9.55833 8.30833C9.65 8.6 9.58333 8.925 9.35 9.15833L7.51667 10.9917Z" fill="currentColor"/>
</symbol><symbol id="icon-right-arrow" viewBox="0 0 10 14">
<path d="M2.12547 14L9.12547 7L2.12547 0L0.480469 1.645L5.8238 7L0.480469 12.355L2.12547 14Z" fill="currentColor" fill-opacity="0.8"/>
</symbol><symbol id="icon-twitter" viewBox="0 0 512 512"><path fill="currentColor" d="M492 109.5c-17.4 7.7-36 12.9-55.6 15.3 20-12 35.4-31 42.6-53.6-18.7 11.1-39.4 19.2-61.5 23.5C399.8 75.8 374.6 64 346.8 64c-53.5 0-96.8 43.4-96.8 96.9 0 7.6.8 15 2.5 22.1-80.5-4-151.9-42.6-199.6-101.3-8.3 14.3-13.1 31-13.1 48.7 0 33.6 17.1 63.3 43.1 80.7C67 210.7 52 206.3 39 199v1.2c0 47 33.4 86.1 77.7 95-8.1 2.2-16.7 3.4-25.5 3.4-6.2 0-12.3-.6-18.2-1.8 12.3 38.5 48.1 66.5 90.5 67.3-33.1 26-74.9 41.5-120.3 41.5-7.8 0-15.5-.5-23.1-1.4C62.9 432 113.8 448 168.4 448 346.6 448 444 300.3 444 172.2c0-4.2-.1-8.4-.3-12.5 18.9-13.7 35.3-30.8 48.3-50.2z"/></symbol><symbol id="icon-vk" viewBox="0 0 64 64"><style/><path d="M4 13.9h7.1c.9 0 1.6.6 1.9 1.4.9 2.6 2.9 8.3 5.2 12.2 3.1 5.1 5.1 7 6.4 6.8 1.3-.3.9-3.7.9-6.4s.3-7.3-1-9.4l-2-2.9a1 1 0 01.8-1.6h11.4c1.1 0 2 .9 2 2v14.5s.5 2.6 3.3-.1 5.8-7.7 8.3-12.8l1-2.4c.3-.7 1-1.2 1.8-1.2h7.4c1.4 0 2.4 1.4 1.9 2.7l-.8 2.1s-2.7 5.4-5.5 9.2c-2.8 3.9-3.4 4.8-3 5.8.4 1 7.6 7.7 9.4 10.9.5.9.9 1.7 1.3 2.4.7 1.3-.3 3-1.8 3h-8.4c-.7 0-1.4-.4-1.7-1l-.8-1.3s-5.1-6-8.2-7.9c-3.2-1.8-3.1.8-3.1.8V46c0 2.2-1.8 4-4 4h-2s-11 0-19.8-13.1C5.1 26.7 2.8 20.1 2 16.3c-.2-1.2.7-2.4 2-2.4z" fill="currentColor" id="Layer_11"/></symbol></svg>